<svg width="14" height="15" viewBox="0 0 14 15" fill="none" xmlns="http://www.w3.org/2000/svg">
<path fill-rule="evenodd" clip-rule="evenodd" d="M13.7071 1.0363C14.0976 1.42683 14.0976 2.05999 13.7071 2.45052L1.70711 14.4505C1.31658 14.841 0.683417 14.841 0.292893 14.4505C-0.0976311 14.06 -0.0976311 13.4268 0.292893 13.0363L12.2929 1.0363C12.6834 0.645777 13.3166 0.645777 13.7071 1.0363Z" fill="white"/>
<path fill-rule="evenodd" clip-rule="evenodd" d="M1.99997 1.74338C1.99997 1.19109 2.44768 0.743378 2.99997 0.743378H13C13.5523 0.743378 14 1.19109 14 1.74338V11.7434C14 12.2957 13.5523 12.7434 13 12.7434C12.4477 12.7434 12 12.2957 12 11.7434V2.74338H2.99997C2.44768 2.74338 1.99997 2.29566 1.99997 1.74338Z" fill="white"/>
</svg>
