<svg width="15" height="15" viewBox="0 0 15 15" fill="none" xmlns="http://www.w3.org/2000/svg">
<path fill-rule="evenodd" clip-rule="evenodd" d="M0.937119 14.4505C0.546595 14.06 0.546595 13.4268 0.937119 13.0363L12.9371 1.0363C13.3276 0.645779 13.9608 0.645779 14.3513 1.0363C14.7419 1.42683 14.7419 2.05999 14.3513 2.45052L2.35133 14.4505C1.96081 14.841 1.32764 14.841 0.937119 14.4505Z" fill="white"/>
<path fill-rule="evenodd" clip-rule="evenodd" d="M12.6443 13.7434C12.6443 14.2957 12.1965 14.7434 11.6443 14.7434L1.64426 14.7434C1.09197 14.7434 0.644258 14.2957 0.644258 13.7434L0.644257 3.74344C0.644257 3.19116 1.09197 2.74344 1.64426 2.74344C2.19654 2.74344 2.64426 3.19116 2.64426 3.74344L2.64426 12.7434L11.6443 12.7434C12.1965 12.7434 12.6443 13.1912 12.6443 13.7434Z" fill="white"/>
</svg>
