<?xml version="1.0" encoding="UTF-8"?>
<svg xmlns="http://www.w3.org/2000/svg" viewBox="0 0 64 64" width="512" height="512"><g id="Layer_32" data-name="Layer 32"><path d="M48.625,15.377A25,25,0,1,0,15.377,48.625,25,25,0,1,0,48.625,15.377ZM3,26A22.992,22.992,0,0,1,45.751,14.236a24.691,24.691,0,0,0-2.9-.76A20.994,20.994,0,1,0,13.476,42.848a24.691,24.691,0,0,0,.76,2.9A23.053,23.053,0,0,1,3,26ZM25,12a1,1,0,1,1,1,1A1,1,0,0,1,25,12Zm2,2.816a3,3,0,1,0-2,0v1.838A25.192,25.192,0,0,0,19.692,21H18V19.816a3,3,0,1,0-2,0V22a1,1,0,0,0,1,1h1.014q-.727.965-1.36,2H14.816a3,3,0,1,0,0,2h.741A24.842,24.842,0,0,0,13,38c0,.648.033,1.289.081,1.925A19,19,0,1,1,39.926,13.081C39.289,13.033,38.649,13,38,13a24.842,24.842,0,0,0-11,2.557ZM16,17a1,1,0,1,1,1,1A1,1,0,0,1,16,17Zm-3,9a1,1,0,1,1-1-1A1,1,0,0,1,13,26ZM38,61A23,23,0,1,1,61,38,23.026,23.026,0,0,1,38,61Z"/><path d="M38,17A21,21,0,1,0,59,38,21.024,21.024,0,0,0,38,17Zm0,40A19,19,0,1,1,57,38,19.021,19.021,0,0,1,38,57Z"/><path d="M38,23A15,15,0,1,0,52.378,42.285,1,1,0,0,0,51.42,41H47.168a1,1,0,0,0-.916.6,9,9,0,1,1,0-7.2,1,1,0,0,0,.916.6H51.42a1,1,0,0,0,.958-1.285A15.088,15.088,0,0,0,38,23Zm9.8,10a11,11,0,1,0,0,10H50a13,13,0,1,1,0-10Z"/><path d="M36,43h4a1,1,0,0,0,1-1V39.63a4,4,0,1,0-6,0V42A1,1,0,0,0,36,43Zm2-8a2,2,0,0,1,2,2,1.971,1.971,0,0,1-.67,1.479,1,1,0,0,0-.33.743V41H37V39.222a1,1,0,0,0-.33-.743A1.971,1.971,0,0,1,36,37,2,2,0,0,1,38,35Z"/></g></svg>
