<svg width="24" height="23" viewBox="0 0 24 23" fill="none" xmlns="http://www.w3.org/2000/svg">
<path d="M16.5068 10.5193C16.2143 10.1379 15.8583 9.80725 15.5277 9.47664C14.6757 8.71368 13.7093 8.1669 12.8955 7.36579C11.0008 5.50927 10.5812 2.44473 11.7892 0.0922852C10.5812 0.384751 9.52576 1.04598 8.62292 1.77079C5.3295 4.4157 4.03248 9.08244 5.58382 13.088C5.63468 13.2151 5.68555 13.3423 5.68555 13.5076C5.68555 13.7873 5.49481 14.0417 5.24049 14.1434C4.94802 14.2705 4.64284 14.1942 4.40124 13.9908C4.32864 13.9308 4.26821 13.8574 4.22322 13.7746C2.78632 11.9562 2.55743 9.34948 3.52384 7.26407C1.40028 8.99343 0.243131 11.9181 0.408438 14.6774C0.484734 15.3132 0.561029 15.949 0.7772 16.5848C0.955223 17.3478 1.29855 18.1107 1.68003 18.7847C3.05335 20.9845 5.43123 22.5613 7.98713 22.8792C10.7083 23.2225 13.6203 22.7266 15.7057 20.8447C18.0327 18.7338 18.8465 15.3514 17.6512 12.4522L17.4859 12.1215C17.2189 11.5366 16.5068 10.5193 16.5068 10.5193ZM12.4886 18.5304C12.1325 18.8356 11.5476 19.1662 11.0898 19.2933C9.66563 19.802 8.24145 19.0899 7.4022 18.2506C8.91539 17.8946 9.81822 16.7756 10.0853 15.6439C10.3014 14.6266 9.89452 13.7873 9.72921 12.8082C9.57662 11.8672 9.60205 11.0661 9.94538 10.1887C10.187 10.6719 10.4413 11.1551 10.7465 11.5366C11.7256 12.8082 13.2642 13.3677 13.5949 15.0971C13.6457 15.2751 13.6711 15.4531 13.6711 15.6439C13.7093 16.6866 13.2515 17.831 12.4886 18.5304ZM23.2971 12.8082H20.7539V5.17865H23.2971V12.8082ZM23.2971 17.8946H20.7539V15.3514H23.2971V17.8946Z" fill="black"/>
</svg>
