<svg width="132" height="22" viewBox="0 0 132 22" fill="none" xmlns="http://www.w3.org/2000/svg">
<path d="M33.384 21.216C31.464 21.216 30.112 20.648 29.328 19.512C28.544 18.36 28.152 16.776 28.152 14.76V7.896C28.152 5.768 28.536 4.152 29.304 3.048C30.072 1.944 31.432 1.392 33.384 1.392C35.128 1.392 36.376 1.864 37.128 2.808C37.896 3.752 38.28 5.144 38.28 6.984V8.52H35.712V7.152C35.712 6.256 35.672 5.568 35.592 5.088C35.512 4.608 35.304 4.224 34.968 3.936C34.648 3.648 34.128 3.504 33.408 3.504C32.672 3.504 32.12 3.664 31.752 3.984C31.4 4.288 31.168 4.72 31.056 5.28C30.944 5.824 30.888 6.56 30.888 7.488V15.192C30.888 16.184 30.968 16.96 31.128 17.52C31.288 18.08 31.544 18.48 31.896 18.72C32.264 18.96 32.768 19.08 33.408 19.08C34.096 19.08 34.608 18.928 34.944 18.624C35.28 18.32 35.488 17.904 35.568 17.376C35.664 16.848 35.712 16.128 35.712 15.216V13.776H38.28V15.216C38.28 17.152 37.912 18.64 37.176 19.68C36.456 20.704 35.192 21.216 33.384 21.216Z" fill="#4CD71D"/>
<path d="M44.4636 21.192C42.9916 21.192 41.9436 20.76 41.3196 19.896C40.7116 19.016 40.4076 17.744 40.4076 16.08V12.048C40.4076 10.384 40.7116 9.12 41.3196 8.256C41.9436 7.376 42.9916 6.936 44.4636 6.936C45.9196 6.936 46.9516 7.376 47.5596 8.256C48.1836 9.12 48.4956 10.384 48.4956 12.048V16.08C48.4956 17.744 48.1836 19.016 47.5596 19.896C46.9516 20.76 45.9196 21.192 44.4636 21.192ZM44.4636 19.296C44.9276 19.296 45.2636 19.16 45.4716 18.888C45.6796 18.616 45.8076 18.28 45.8556 17.88C45.9036 17.48 45.9276 16.936 45.9276 16.248V11.904C45.9276 11.216 45.9036 10.672 45.8556 10.272C45.8076 9.856 45.6796 9.512 45.4716 9.24C45.2636 8.968 44.9276 8.832 44.4636 8.832C43.9996 8.832 43.6556 8.968 43.4316 9.24C43.2236 9.512 43.0956 9.856 43.0476 10.272C42.9996 10.672 42.9756 11.216 42.9756 11.904V16.248C42.9756 16.936 42.9996 17.48 43.0476 17.88C43.0956 18.28 43.2236 18.616 43.4316 18.888C43.6556 19.16 43.9996 19.296 44.4636 19.296Z" fill="#4CD71D"/>
<path d="M51.0109 2.376H53.5789V5.064H51.0109V2.376ZM51.0109 7.128H53.5789V21H51.0109V7.128Z" fill="#4CD71D"/>
<path d="M56.3273 7.128H58.8953V8.496C59.9993 7.456 61.1273 6.936 62.2793 6.936C63.0313 6.936 63.5673 7.208 63.8873 7.752C64.2073 8.296 64.3673 8.968 64.3673 9.768V21H61.7993V10.512C61.7993 9.984 61.7193 9.592 61.5593 9.336C61.3993 9.08 61.1113 8.952 60.6953 8.952C60.1833 8.952 59.5833 9.24 58.8953 9.816V21H56.3273V7.128Z" fill="#4CD71D"/>
<path d="M69.2261 3.576H65.9381V1.56H75.1301V3.576H71.9381V21H69.2261V3.576Z" fill="#4CD71D"/>
<path d="M76.8602 7.128H79.4282V9.096C79.9082 8.312 80.3962 7.76 80.8922 7.44C81.4042 7.12 81.9402 6.96 82.5002 6.96C82.6442 6.96 82.7802 6.968 82.9082 6.984V9.816C82.3962 9.624 81.9242 9.528 81.4922 9.528C81.0762 9.528 80.7002 9.632 80.3642 9.84C80.0442 10.032 79.7322 10.376 79.4282 10.872V21H76.8602V7.128Z" fill="#4CD71D"/>
<path d="M86.9951 21.192C86.4671 21.192 85.9871 21.04 85.5551 20.736C85.1391 20.432 84.8111 20.032 84.5711 19.536C84.3311 19.04 84.2111 18.52 84.2111 17.976C84.2111 16.888 84.4431 16.008 84.9071 15.336C85.3711 14.648 85.9631 14.104 86.6831 13.704C87.4031 13.304 88.4031 12.848 89.6831 12.336V11.352C89.6831 10.44 89.5871 9.8 89.3951 9.432C89.2191 9.048 88.8511 8.856 88.2911 8.856C87.3151 8.856 86.8271 9.512 86.8271 10.824V11.52L84.2831 11.424C84.3151 9.888 84.6671 8.76 85.3391 8.04C86.0111 7.304 87.0511 6.936 88.4591 6.936C89.7871 6.936 90.7471 7.304 91.3391 8.04C91.9471 8.76 92.2511 9.856 92.2511 11.328V17.664C92.2511 18.704 92.3311 19.816 92.4911 21H90.1391C89.9631 20.088 89.8511 19.408 89.8031 18.96C89.6111 19.584 89.2751 20.112 88.7951 20.544C88.3311 20.976 87.7311 21.192 86.9951 21.192ZM88.0031 18.984C88.3391 18.984 88.6671 18.856 88.9871 18.6C89.3071 18.328 89.5391 18.072 89.6831 17.832V13.896C88.9951 14.28 88.4591 14.616 88.0751 14.904C87.7071 15.176 87.3951 15.496 87.1391 15.864C86.8991 16.232 86.7791 16.672 86.7791 17.184C86.7791 17.76 86.8831 18.208 87.0911 18.528C87.2991 18.832 87.6031 18.984 88.0031 18.984Z" fill="#4CD71D"/>
<path d="M98.5099 21.192C97.4219 21.192 96.5819 20.976 95.9899 20.544C95.3979 20.096 94.9899 19.48 94.7659 18.696C94.5579 17.896 94.4539 16.888 94.4539 15.672V12.48C94.4539 11.232 94.5579 10.208 94.7659 9.408C94.9899 8.608 95.3979 8 95.9899 7.584C96.5819 7.152 97.4219 6.936 98.5099 6.936C99.5019 6.936 100.27 7.096 100.814 7.416C101.374 7.736 101.758 8.216 101.966 8.856C102.19 9.48 102.302 10.296 102.302 11.304V12.12H99.9739V11.28C99.9739 10.368 99.8699 9.736 99.6619 9.384C99.4699 9.016 99.0939 8.832 98.5339 8.832C98.1019 8.832 97.7819 8.928 97.5739 9.12C97.3659 9.312 97.2219 9.624 97.1419 10.056C97.0619 10.488 97.0219 11.12 97.0219 11.952V16.32C97.0219 17.12 97.0699 17.736 97.1659 18.168C97.2619 18.584 97.4139 18.88 97.6219 19.056C97.8459 19.216 98.1579 19.296 98.5579 19.296C99.1499 19.296 99.5339 19.104 99.7099 18.72C99.8859 18.32 99.9739 17.712 99.9739 16.896V15.768H102.302V16.728C102.302 18.232 102.022 19.352 101.462 20.088C100.918 20.824 99.9339 21.192 98.5099 21.192Z" fill="#4CD71D"/>
<path d="M104.633 1.536H107.201V13.128L110.945 7.128H113.633L110.369 12.552L113.537 21H110.969L108.377 13.896L107.201 15.672V20.976H104.633V1.536Z" fill="#4CD71D"/>
<path d="M118.714 21.192C117.642 21.192 116.81 20.992 116.218 20.592C115.626 20.176 115.21 19.568 114.97 18.768C114.73 17.968 114.61 16.928 114.61 15.648V12.48C114.61 10.56 114.906 9.16 115.498 8.28C116.106 7.384 117.178 6.936 118.714 6.936C119.834 6.936 120.674 7.168 121.234 7.632C121.81 8.096 122.186 8.752 122.362 9.6C122.554 10.432 122.65 11.56 122.65 12.984V14.112H117.178V16.896C117.178 17.744 117.298 18.36 117.538 18.744C117.794 19.112 118.194 19.296 118.738 19.296C119.282 19.296 119.65 19.112 119.842 18.744C120.034 18.36 120.13 17.784 120.13 17.016V16.176H122.626V16.704C122.626 18.16 122.314 19.272 121.69 20.04C121.066 20.808 120.074 21.192 118.714 21.192ZM120.13 12.72V11.472C120.13 10.528 120.034 9.856 119.842 9.456C119.666 9.04 119.282 8.832 118.69 8.832C118.274 8.832 117.954 8.928 117.73 9.12C117.522 9.312 117.378 9.632 117.298 10.08C117.218 10.512 117.178 11.144 117.178 11.976V12.72H120.13Z" fill="#4CD71D"/>
<path d="M125.048 7.128H127.616V9.096C128.096 8.312 128.584 7.76 129.08 7.44C129.592 7.12 130.128 6.96 130.688 6.96C130.832 6.96 130.968 6.968 131.096 6.984V9.816C130.584 9.624 130.112 9.528 129.68 9.528C129.264 9.528 128.888 9.632 128.552 9.84C128.232 10.032 127.92 10.376 127.616 10.872V21H125.048V7.128Z" fill="#4CD71D"/>
<path d="M3.66516 0.293427V2.93932H0.884216V4.70324H3.66516V7.34913H5.51912V4.70324H8.30005V2.93932H5.51912V0.293427H3.66516ZM10.154 2.93932V4.70324H18.4968V6.46717H12.935C11.9153 6.46717 11.081 7.26093 11.081 8.23109V13.5229C11.081 14.493 11.9153 15.2868 12.935 15.2868H18.4968V17.0507H5.51912V9.11306H3.66516V17.0507C3.66516 17.5185 3.86048 17.9672 4.20817 18.298C4.55585 18.6288 5.02741 18.8146 5.51912 18.8146H18.4968C19.5165 18.8146 20.3508 18.0209 20.3508 17.0507V15.0398C20.631 14.8859 20.864 14.6649 21.0266 14.3988C21.1892 14.1327 21.2758 13.8307 21.2778 13.5229V8.23109C21.2758 7.92326 21.1892 7.62128 21.0266 7.35515C20.864 7.08903 20.631 6.86803 20.3508 6.71412V4.70324C20.3508 3.73308 19.5165 2.93932 18.4968 2.93932H10.154ZM12.935 8.23109H19.4238V13.5229H12.935V8.23109ZM15.7159 9.55404C15.3471 9.55404 14.9934 9.69342 14.7327 9.94152C14.4719 10.1896 14.3254 10.5261 14.3254 10.877C14.3254 11.2278 14.4719 11.5643 14.7327 11.8124C14.9934 12.0605 15.3471 12.1999 15.7159 12.1999C16.0847 12.1999 16.4383 12.0605 16.6991 11.8124C16.9599 11.5643 17.1064 11.2278 17.1064 10.877C17.1064 10.5261 16.9599 10.1896 16.6991 9.94152C16.4383 9.69342 16.0847 9.55404 15.7159 9.55404Z" fill="#4CD71D"/>
</svg>
