<svg width="22" height="22" viewBox="0 0 22 22" fill="none" xmlns="http://www.w3.org/2000/svg">
<path fill-rule="evenodd" clip-rule="evenodd" d="M10 2.32605C8.01088 2.32605 6.10322 3.11623 4.6967 4.52275C3.29018 5.92927 2.5 7.83693 2.5 9.82605C2.5 11.8152 3.29018 13.7228 4.6967 15.1294C6.10322 16.5359 8.01088 17.326 10 17.326C11.9891 17.326 13.8968 16.5359 15.3033 15.1294C16.7098 13.7228 17.5 11.8152 17.5 9.82605C17.5 7.83693 16.7098 5.92927 15.3033 4.52275C13.8968 3.11623 11.9891 2.32605 10 2.32605ZM3.28249 3.10854C5.06408 1.32694 7.48044 0.32605 10 0.32605C12.5196 0.32605 14.9359 1.32694 16.7175 3.10854C18.4991 4.89013 19.5 7.30649 19.5 9.82605C19.5 12.0084 18.7491 14.1133 17.3904 15.7954L21.2077 19.6196L19.7923 21.0325L15.9769 17.2103C14.2936 18.5729 12.1856 19.326 10 19.326C7.48044 19.326 5.06408 18.3252 3.28249 16.5436C1.50089 14.762 0.5 12.3456 0.5 9.82605C0.5 7.30649 1.50089 4.89013 3.28249 3.10854Z" fill="black"/>
</svg>
