<svg width="13" height="13" viewBox="0 0 13 13" fill="none" xmlns="http://www.w3.org/2000/svg">
<path fill-rule="evenodd" clip-rule="evenodd" d="M6.61394 0.613968C7.02815 0.613968 7.36394 0.949754 7.36394 1.36397V11.864C7.36394 12.2782 7.02815 12.614 6.61394 12.614C6.19972 12.614 5.86394 12.2782 5.86394 11.864V1.36397C5.86394 0.949754 6.19972 0.613968 6.61394 0.613968Z" fill="black"/>
<path fill-rule="evenodd" clip-rule="evenodd" d="M12.6139 6.61398C12.6139 7.0282 12.2782 7.36398 11.8639 7.36398L1.36394 7.36398C0.949724 7.36398 0.613937 7.0282 0.613937 6.61398C0.613937 6.19977 0.949724 5.86398 1.36394 5.86398L11.8639 5.86398C12.2782 5.86398 12.6139 6.19977 12.6139 6.61398Z" fill="black"/>
</svg>
