<svg width="12" height="13" viewBox="0 0 12 13" fill="none" xmlns="http://www.w3.org/2000/svg">
<path d="M7.87035 6.74341L11.6124 10.4841C11.8606 10.7323 12 11.0689 12 11.4199C12 11.7709 11.8606 12.1076 11.6124 12.3558C11.3642 12.604 11.0275 12.7434 10.6765 12.7434C10.3255 12.7434 9.98889 12.604 9.74069 12.3558L6 8.61375L2.25931 12.3558C2.01111 12.604 1.67448 12.7434 1.32347 12.7434C0.972465 12.7434 0.635835 12.604 0.387636 12.3558C0.139437 12.1076 0 11.7709 0 11.4199C0 11.2461 0.0342326 11.074 0.100743 10.9135C0.167254 10.7529 0.26474 10.607 0.387636 10.4841L4.12965 6.74341L0.387636 3.00271C0.139437 2.75451 0 2.41789 0 2.06688C0 1.89308 0.0342326 1.72098 0.100743 1.56041C0.167254 1.39984 0.26474 1.25394 0.387636 1.13104C0.510531 1.00815 0.656429 0.910662 0.817 0.844151C0.977571 0.777641 1.14967 0.743408 1.32347 0.743408C1.67448 0.743408 2.01111 0.882845 2.25931 1.13104L6 4.87306L9.74069 1.13104C9.98889 0.882845 10.3255 0.743408 10.6765 0.743408C11.0275 0.743408 11.3642 0.882845 11.6124 1.13104C11.8606 1.37924 12 1.71587 12 2.06688C12 2.41789 11.8606 2.75451 11.6124 3.00271L7.87035 6.74341Z" fill="white"/>
</svg>
